<?xml version="1.0" encoding="UTF-8" standalone="no"?>
<!-- Created with Inkscape (http://www.inkscape.org/) -->

<svg
   xmlns:dc="http://purl.org/dc/elements/1.1/"
   xmlns:cc="http://creativecommons.org/ns#"
   xmlns:rdf="http://www.w3.org/1999/02/22-rdf-syntax-ns#"
   xmlns:svg="http://www.w3.org/2000/svg"
   xmlns="http://www.w3.org/2000/svg"
   xmlns:sodipodi="http://sodipodi.sourceforge.net/DTD/sodipodi-0.dtd"
   xmlns:inkscape="http://www.inkscape.org/namespaces/inkscape"
   width="92"
   height="28"
   viewBox="0 0 24.341666 7.4083335"
   version="1.1"
   id="svg8"
   inkscape:version="0.92.3 (2405546, 2018-03-11)"
   sodipodi:docname="icon_inca.svg">
  <defs
     id="defs2" />
  <sodipodi:namedview
     id="base"
     pagecolor="#ffffff"
     bordercolor="#666666"
     borderopacity="1.0"
     inkscape:pageopacity="0.0"
     inkscape:pageshadow="2"
     inkscape:zoom="10.291478"
     inkscape:cx="27.525323"
     inkscape:cy="15.672322"
     inkscape:document-units="px"
     inkscape:current-layer="layer1"
     showgrid="false"
     units="px"
     inkscape:showpageshadow="false"
     inkscape:window-width="1920"
     inkscape:window-height="1032"
     inkscape:window-x="0"
     inkscape:window-y="23"
     inkscape:window-maximized="1"
     showguides="false" />
  <metadata
     id="metadata5">
    <rdf:RDF>
      <cc:Work
         rdf:about="">
        <dc:format>image/svg+xml</dc:format>
        <dc:type
           rdf:resource="http://purl.org/dc/dcmitype/StillImage" />
        <dc:title />
      </cc:Work>
    </rdf:RDF>
  </metadata>
  <g
     inkscape:label="Livello 1"
     inkscape:groupmode="layer"
     id="layer1"
     transform="translate(0,-289.59165)">
    <g
       id="g1123"
       transform="matrix(0.60208268,0,0,0.60208268,1.4786799,116.70748)">
      <path
         transform="matrix(0.26458333,0,0,0.26458333,0,289.59165)"
         sodipodi:nodetypes="cccc"
         inkscape:connector-curvature="0"
         id="rect1086"
         d="M -0.67773438,-0.578125 V 4.4082031 L 17.931641,-0.578125 Z"
         style="opacity:1;fill:#00b4e2;fill-opacity:1;stroke:none;stroke-width:1.26125467;stroke-linecap:round;stroke-linejoin:round;stroke-miterlimit:4;stroke-dasharray:none;stroke-opacity:1" />
      <path
         id="rect1084"
         d="m -75.507591,281.08572 h 6.35 v 6.35 h -6.35 z"
         style="opacity:1;fill:#e3010f;fill-opacity:1;stroke:none;stroke-width:0.33370697;stroke-linecap:round;stroke-linejoin:round;stroke-miterlimit:4;stroke-dasharray:none;stroke-opacity:1"
         transform="rotate(-15)"
         inkscape:connector-curvature="0" />
      <path
         style="opacity:1;fill:#7fb924;fill-opacity:1;stroke:none;stroke-width:0.33370697;stroke-linecap:round;stroke-linejoin:round;stroke-miterlimit:4;stroke-dasharray:none;stroke-opacity:1"
         d="m 7.5927353,297.1709 v -1.3193 l -4.9237306,1.3193 z"
         id="path1094"
         inkscape:connector-curvature="0"
         sodipodi:nodetypes="cccc" />
      <path
         style="opacity:1;fill:#fbb80f;fill-opacity:1;stroke:none;stroke-width:0.33370697;stroke-linecap:round;stroke-linejoin:round;stroke-miterlimit:4;stroke-dasharray:none;stroke-opacity:1"
         d="M 7.5984913,289.40726 H 6.279192 l 1.3192993,4.92373 z"
         id="path1096"
         inkscape:connector-curvature="0"
         sodipodi:nodetypes="cccc" />
      <path
         sodipodi:nodetypes="cccc"
         inkscape:connector-curvature="0"
         id="path1098"
         d="m -0.2058628,297.18439 h 1.3192994 l -1.3192994,-4.92373 z"
         style="opacity:1;fill:#8977b5;fill-opacity:1;stroke:none;stroke-width:0.33370697;stroke-linecap:round;stroke-linejoin:round;stroke-miterlimit:4;stroke-dasharray:none;stroke-opacity:1" />
    </g>
    <g
       aria-label="INCA"
       style="font-style:normal;font-weight:normal;font-size:5.15961409px;line-height:1.25;font-family:sans-serif;letter-spacing:0px;word-spacing:0px;fill:#666666;fill-opacity:1;stroke:none;stroke-width:0.32247588"
       id="text902">
      <path
         d="m 9.7792719,295.13495 v -3.68832 h 0.7885541 v 3.68832 z"
         style="font-style:normal;font-variant:normal;font-weight:normal;font-stretch:normal;font-family:'Futura Hv BT';-inkscape-font-specification:'Futura Hv BT';fill:#666666;stroke-width:0.32247588"
         id="path1778" />
      <path
         d="m 11.406767,295.13495 v -3.68832 h 0.818787 l 1.632534,2.14648 q 0.07054,0.0907 0.15368,0.25697 0.08566,0.16376 0.176354,0.38798 -0.02771,-0.16375 -0.04031,-0.32499 -0.0126,-0.16124 -0.0126,-0.4031 v -2.06334 h 0.753283 v 3.68832 h -0.773438 l -1.677882,-2.18679 q -0.07054,-0.0907 -0.15368,-0.25445 -0.08314,-0.16628 -0.176354,-0.39554 0.02771,0.15872 0.04031,0.32247 0.0126,0.16124 0.0126,0.40814 v 2.10617 z"
         style="font-style:normal;font-variant:normal;font-weight:normal;font-stretch:normal;font-family:'Futura Hv BT';-inkscape-font-specification:'Futura Hv BT';fill:#666666;stroke-width:0.32247588"
         id="path1780" />
      <path
         d="m 18.68011,292.4065 q -0.239337,-0.21414 -0.491272,-0.3124 -0.251934,-0.10077 -0.539139,-0.10077 -0.589526,0 -0.939715,0.35271 -0.350189,0.3527 -0.350189,0.94727 0,0.58197 0.324996,0.9246 0.324995,0.34011 0.886808,0.34011 0.319957,0 0.594565,-0.10581 0.274609,-0.10833 0.508907,-0.32248 l -0.005,0.80871 q -0.251934,0.14864 -0.529062,0.2217 -0.274609,0.0731 -0.579449,0.0731 -0.88177,0 -1.448622,-0.54669 -0.564333,-0.54922 -0.564333,-1.3932 0,-0.84146 0.566852,-1.38816 0.566852,-0.5467 1.461219,-0.5467 0.299802,0 0.579449,0.063 0.279647,0.063 0.551736,0.19399 z"
         style="font-style:normal;font-variant:normal;font-weight:normal;font-stretch:normal;font-family:'Futura Hv BT';-inkscape-font-specification:'Futura Hv BT';fill:#666666;stroke-width:0.32247588"
         id="path1782" />
      <path
         d="m 21.327939,293.73167 -0.413172,-1.19164 q -0.01764,-0.0529 -0.04535,-0.1814 -0.02771,-0.12848 -0.05795,-0.31491 -0.03275,0.17887 -0.06298,0.32247 -0.03023,0.14108 -0.04535,0.18895 l -0.398056,1.17653 z m -2.348027,1.40328 1.403274,-3.68832 h 0.901924 l 1.423429,3.68832 h -0.896886 l -0.299802,-0.78352 h -1.428467 l -0.256973,0.78352 z"
         style="font-style:normal;font-variant:normal;font-weight:normal;font-stretch:normal;font-family:'Futura Hv BT';-inkscape-font-specification:'Futura Hv BT';fill:#666666;stroke-width:0.32247588"
         id="path1784" />
    </g>
    <path
       style="color:#000000;font-style:normal;font-variant:normal;font-weight:normal;font-stretch:normal;font-size:medium;line-height:normal;font-family:sans-serif;font-variant-ligatures:normal;font-variant-position:normal;font-variant-caps:normal;font-variant-numeric:normal;font-variant-alternates:normal;font-feature-settings:normal;text-indent:0;text-align:start;text-decoration:none;text-decoration-line:none;text-decoration-style:solid;text-decoration-color:#000000;letter-spacing:normal;word-spacing:normal;text-transform:none;writing-mode:lr-tb;direction:ltr;text-orientation:mixed;dominant-baseline:auto;baseline-shift:baseline;text-anchor:start;white-space:normal;shape-padding:0;clip-rule:nonzero;display:inline;overflow:visible;visibility:visible;opacity:1;isolation:auto;mix-blend-mode:normal;color-interpolation:sRGB;color-interpolation-filters:linearRGB;solid-color:#000000;solid-opacity:1;vector-effect:none;fill:#666666;fill-opacity:1;fill-rule:nonzero;stroke:none;stroke-width:0.32130393;stroke-linecap:butt;stroke-linejoin:miter;stroke-miterlimit:4;stroke-dasharray:none;stroke-dashoffset:0;stroke-opacity:1;color-rendering:auto;image-rendering:auto;shape-rendering:auto;text-rendering:auto;enable-background:accumulate"
       d="M 3.7050781,289.5918 C 1.661224,289.5918 -3.0569724e-6,291.25107 0,293.29492 2.7108947e-6,295.33877 1.6612281,297 3.7050781,297 c 2.04385,0 3.7031223,-1.66123 3.703125,-3.70508 3.1e-6,-2.04385 -1.6592709,-3.70312 -3.703125,-3.70312 z m 0,0.32031 c 1.8702084,0 3.3828153,1.5126 3.3828125,3.38281 -2.5e-6,1.87021 -1.5126079,3.38281 -3.3828125,3.38281 -1.8702046,0 -3.38280999,-1.5126 -3.38281248,-3.38281 -2.79e-6,-1.87021 1.51260408,-3.38281 3.38281248,-3.38281 z"
       id="path904"
       inkscape:connector-curvature="0" />
  </g>
</svg>
