<?xml version="1.0" encoding="UTF-8" standalone="no"?>
<!-- Created with Inkscape (http://www.inkscape.org/) -->

<svg
   xmlns:dc="http://purl.org/dc/elements/1.1/"
   xmlns:cc="http://creativecommons.org/ns#"
   xmlns:rdf="http://www.w3.org/1999/02/22-rdf-syntax-ns#"
   xmlns:svg="http://www.w3.org/2000/svg"
   xmlns="http://www.w3.org/2000/svg"
   xmlns:sodipodi="http://sodipodi.sourceforge.net/DTD/sodipodi-0.dtd"
   xmlns:inkscape="http://www.inkscape.org/namespaces/inkscape"
   width="128"
   height="72"
   viewBox="0 0 33.866665 19.050001"
   version="1.1"
   id="svg8"
   sodipodi:docname="sidebar_logo.svg"
   inkscape:version="0.92.3 (2405546, 2018-03-11)">
  <defs
     id="defs2" />
  <sodipodi:namedview
     id="base"
     pagecolor="#ffffff"
     bordercolor="#666666"
     borderopacity="1.0"
     inkscape:pageopacity="0.0"
     inkscape:pageshadow="2"
     inkscape:zoom="6.5234375"
     inkscape:cx="64"
     inkscape:cy="64"
     inkscape:document-units="px"
     inkscape:current-layer="text869"
     showgrid="false"
     units="px"
     inkscape:showpageshadow="false"
     inkscape:window-width="1920"
     inkscape:window-height="1026"
     inkscape:window-x="0"
     inkscape:window-y="29"
     inkscape:window-maximized="1"
     inkscape:snap-grids="true" />
  <metadata
     id="metadata5">
    <rdf:RDF>
      <cc:Work
         rdf:about="">
        <dc:format>image/svg+xml</dc:format>
        <dc:type
           rdf:resource="http://purl.org/dc/dcmitype/StillImage" />
        <dc:title></dc:title>
      </cc:Work>
    </rdf:RDF>
  </metadata>
  <g
     inkscape:label="Livello 1"
     inkscape:groupmode="layer"
     id="layer1"
     transform="translate(0,-277.94999)">
    <g
       aria-label="Opis"
       style="font-style:normal;font-variant:normal;font-weight:normal;font-stretch:normal;font-size:17.77799606px;line-height:1.25;font-family:'Futura Hv BT';-inkscape-font-specification:'Futura Hv BT';letter-spacing:0px;word-spacing:0px;fill:#000000;fill-opacity:1;stroke:none;stroke-width:0.74074984"
       id="text869">
      <g
         id="g1037"
         transform="translate(3.6901341e-7,10.583366)">
        <path
           sodipodi:nodetypes="ssssscscssscscsscscssc"
           inkscape:connector-curvature="0"
           id="path871-6"
           style="font-style:normal;font-variant:normal;font-weight:normal;font-stretch:normal;font-size:medium;line-height:1.25;font-family:OpenDinSchriftenEngshrift;-inkscape-font-specification:OpenDinSchriftenEngshrift;letter-spacing:0px;word-spacing:0px;fill:#d9230f;fill-opacity:0.94117647;stroke:none;stroke-width:0.66373175"
           d="m 11.207819,268.96619 c 0.467266,-0.46726 1.030111,-0.7009 1.688533,-0.7009 0.658422,0 1.221266,0.23374 1.688533,0.7009 0.467267,0.46728 0.700901,1.03012 0.700901,1.68854 v 9.11073 c 0,0.65841 -0.233634,1.22128 -0.700901,1.68853 -0.467267,0.46729 -1.030111,0.7009 -1.688533,0.7009 -0.658422,0 -1.221267,-0.23349 -1.688533,-0.7009 -0.467268,-0.46725 -0.700901,-1.03012 -0.700901,-1.68853 v -9.11073 c 0,-0.65842 0.233634,-1.22126 0.700901,-1.68854 z m 2.246068,1.13099 c -0.148677,-0.15925 -0.334522,-0.23901 -0.557535,-0.23901 -0.223015,0 -0.414169,0.0795 -0.573465,0.23901 -0.148676,0.14872 -0.223012,0.33454 -0.223012,0.55755 v 9.11073 c 0,0.22296 0.07433,0.41419 0.223012,0.57347 0.159296,0.14872 0.350451,0.22296 0.573465,0.22296 0.223012,0 0.408859,-0.0745 0.557535,-0.22296 0.159295,-0.15926 0.238943,-0.35046 0.238943,-0.57347 v -9.11073 c 0,-0.22296 -0.07964,-0.40888 -0.238943,-0.55755 z" />
        <path
           sodipodi:nodetypes="ccccscssssccccccscsscscssc"
           inkscape:connector-curvature="0"
           id="path873-2"
           style="font-style:normal;font-variant:normal;font-weight:normal;font-stretch:normal;font-size:medium;line-height:1.25;font-family:OpenDinSchriftenEngshrift;-inkscape-font-specification:OpenDinSchriftenEngshrift;letter-spacing:0px;word-spacing:0px;fill:#da230f;fill-opacity:0.94117647;stroke:none;stroke-width:0.66373175"
           d="m 15.936669,274.19012 c 0.668211,-0.29268 1.157705,-0.2044 1.592956,0 v 1.59295 c 0,-0.4354 0.153986,-0.80711 0.461957,-1.11506 0.318592,-0.31861 0.695592,-0.47789 1.130999,-0.47789 0.435409,0 0.807099,0.15925 1.115068,0.47789 0.318591,0.30795 0.477889,0.67966 0.477889,1.11506 v 4.77889 c 0,0.43538 -0.159305,0.81241 -0.477889,1.13097 -0.307969,0.308 -0.679659,0.46196 -1.115068,0.46196 -0.435407,0 -0.812407,-0.15374 -1.130999,-0.46196 -0.307971,-0.31856 -0.461957,-0.69559 -0.461957,-1.13097 v 4.77884 c -0.708405,0.29569 -1.162886,0.16829 -1.592956,0 z m 2.946969,1.83189 c -0.148677,-0.15926 -0.334521,-0.23901 -0.557535,-0.23901 -0.223015,0 -0.414168,0.0795 -0.573465,0.23901 -0.148676,0.14872 -0.223012,0.33453 -0.223012,0.55754 v 3.18591 c 0,0.22296 0.07433,0.41419 0.223012,0.57347 0.159296,0.14872 0.350451,0.22296 0.573465,0.22296 0.223013,0 0.40886,-0.0745 0.557535,-0.22296 0.159295,-0.15926 0.238943,-0.35046 0.238943,-0.57347 v -3.18591 c 0,-0.22296 -0.07964,-0.40885 -0.238943,-0.55754 z" />
        <path
           sodipodi:nodetypes="cccccccccc"
           inkscape:connector-curvature="0"
           id="path875-9"
           style="font-style:normal;font-variant:normal;font-weight:normal;font-stretch:normal;font-size:medium;line-height:1.25;font-family:OpenDinSchriftenEngshrift;-inkscape-font-specification:OpenDinSchriftenEngshrift;letter-spacing:0px;word-spacing:0px;fill:#da230f;fill-opacity:0.94117647;stroke:none;stroke-width:0.66373175"
           d="m 21.366421,271.00421 c 0.491365,-0.13217 1.00823,-0.17907 1.592955,0 v 1.59295 c -0.512358,0.0996 -1.034084,0.14873 -1.592955,0 z m 0,3.18591 c 0.530985,-0.20791 1.06197,-0.18283 1.592955,0 v 7.96477 c -0.539073,0.19412 -1.069514,0.18083 -1.592955,0 z" />
        <path
           style="font-style:normal;font-variant:normal;font-weight:normal;font-stretch:normal;font-size:medium;line-height:1.25;font-family:OpenDinSchriftenEngshrift;-inkscape-font-specification:OpenDinSchriftenEngshrift;letter-spacing:0px;word-spacing:0px;fill:#da230f;fill-opacity:0.94117647;stroke:none;stroke-width:0.66373175"
           d="m 25.980475,274.19072 c -0.658419,0 -1.220155,0.23257 -1.687423,0.69986 -0.467277,0.46728 -0.701149,1.0303 -0.701149,1.68871 0,0.65844 0.233884,1.22144 0.701149,1.68872 0.467271,0.46718 1.029001,0.70115 1.687423,0.70115 0.223015,0 0.409914,0.0792 0.558586,0.23847 0.15928,0.14867 0.238468,0.33433 0.238468,0.55729 0,0.22301 -0.07919,0.41488 -0.238468,0.57414 -0.148675,0.14847 -0.335579,0.22291 -0.558586,0.22291 -0.223013,0 -0.413562,-0.0742 -0.572842,-0.22291 -0.148672,-0.15931 -0.222917,-0.35118 -0.222917,-0.57414 -0.431284,-0.15926 -0.918066,-0.27314 -1.592813,0 0,0.65841 0.233884,1.22146 0.701149,1.68872 0.467268,0.46741 1.029004,0.70115 1.687423,0.70115 0.417438,0 0.792122,-0.10509 1.132724,-0.29291 a 3.1827666,3.1827666 0 0 1 1.236406,-1.87404 c 0.0064,-0.0743 0.02074,-0.14598 0.02074,-0.22292 0,-0.65844 -0.233883,-1.22014 -0.701149,-1.68742 -0.467267,-0.46719 -1.030294,-0.70115 -1.688718,-0.70115 -0.223013,0 -0.413562,-0.0742 -0.572842,-0.22292 -0.148672,-0.15928 -0.222917,-0.35118 -0.222917,-0.57414 0,-0.223 0.07424,-0.40856 0.222917,-0.55729 0.159295,-0.1595 0.349834,-0.23846 0.572842,-0.23846 0.223015,0 0.409914,0.0792 0.558586,0.23846 0.159305,0.1487 0.238468,0.33434 0.238468,0.55729 0.530985,0.27646 1.061828,0.22271 1.592813,0 0,-0.65841 -0.233883,-1.22143 -0.701149,-1.68871 -0.467267,-0.46716 -1.030294,-0.69986 -1.688718,-0.69986 z"
           id="path877-1"
           inkscape:connector-curvature="0" />
        <path
           sodipodi:nodetypes="ssccccccccccccccccccssssccss"
           inkscape:connector-curvature="0"
           id="path4560-6"
           d="m 5.1977162,268.26529 c -2.3650127,0 -4.29320274,1.9282 -4.29320224,4.2932 -5e-7,2.18258 1.64255014,3.993 3.75472204,4.25957 v 1.54701 h -2.0633168 -0.53848 c -0.1462039,0.35936 -0.2174124,0.71875 0,1.07812 h 0.53848 2.0633168 v 2.06217 0.53966 c 0.3593824,0.14972 0.7187651,0.14371 1.0781475,0 v -0.53966 -2.06217 h 2.0621298 0.5400625 c 0.1048627,-0.30695 0.1837155,-0.62689 0,-1.07812 H 7.7995133 5.7373835 v -1.54701 c 2.1118059,-0.26712 3.755118,-2.07742 3.7551178,-4.25957 2e-7,-2.365 -1.9297726,-4.2932 -4.2947851,-4.2932 z m 0,1.07815 c 1.7823613,0 3.2166379,1.43267 3.2166376,3.21505 3e-7,1.70275 -1.3098592,3.08446 -2.9808298,3.20477 H 4.9619087 c -1.670849,-0.12013 -2.9792475,-1.50202 -2.9792475,-3.20477 -3e-7,-1.78238 1.4326935,-3.21505 3.215055,-3.21505 z"
           style="color:#000000;font-style:normal;font-variant:normal;font-weight:normal;font-stretch:normal;font-size:medium;line-height:1.25;font-family:'Futura Hv BT';-inkscape-font-specification:'Futura Hv BT';font-variant-ligatures:normal;font-variant-position:normal;font-variant-caps:normal;font-variant-numeric:normal;font-variant-alternates:normal;font-feature-settings:normal;text-indent:0;text-align:start;text-decoration:none;text-decoration-line:none;text-decoration-style:solid;text-decoration-color:#000000;letter-spacing:0px;word-spacing:0px;text-transform:none;writing-mode:lr-tb;direction:ltr;text-orientation:mixed;dominant-baseline:auto;baseline-shift:baseline;text-anchor:start;white-space:normal;shape-padding:0;clip-rule:nonzero;display:inline;overflow:visible;visibility:visible;opacity:1;isolation:auto;mix-blend-mode:normal;color-interpolation:sRGB;color-interpolation-filters:linearRGB;solid-color:#000000;solid-opacity:1;vector-effect:none;fill:#da230f;fill-opacity:0.94117647;fill-rule:nonzero;stroke:none;stroke-width:1.07810521;stroke-linecap:butt;stroke-linejoin:miter;stroke-miterlimit:4;stroke-dasharray:none;stroke-dashoffset:0;stroke-opacity:1;color-rendering:auto;image-rendering:auto;shape-rendering:auto;text-rendering:auto;enable-background:accumulate" />
        <path
           inkscape:connector-curvature="0"
           id="path4595-2"
           d="m 4.7057637,269.79911 v 0.2217 0.85838 H 3.5799402 3.3586191 v 0.44295 h 0.2213198 1.1258235 v 3.46811 0.2217 h 0.4432831 v -0.2217 -1.72954 c 0.3244483,-0.19612 0.5827939,-0.28307 0.738271,-0.29178 0.1583349,-0.01 0.1912117,0.0176 0.2312513,0.10283 0.040037,0.0848 0.056038,0.27763 -0.014421,0.55313 -0.070451,0.27522 -0.2188093,0.62679 -0.4528916,1.03004 -0.038603,0.0665 -0.057818,0.12039 -0.082314,0.21945 -0.024478,0.0988 -0.055037,0.22195 0.015675,0.37281 0.035365,0.0755 0.1121183,0.15023 0.2011433,0.18283 0.089025,0.0323 0.1785265,0.0303 0.2709666,0.0125 0.1848817,-0.0361 0.3976303,-0.13719 0.7033592,-0.33183 l 0.1876905,-0.11838 -0.2386171,-0.37411 -0.1864116,0.11888 c -0.2699478,0.17154 -0.4395081,0.23826 -0.5265583,0.25872 0.00104,-0.01 3.48e-5,-0.005 0.00256,-0.015 0.013493,-0.0544 0.052218,-0.13242 0.034913,-0.10282 0.2490553,-0.42904 0.4152577,-0.81168 0.4999747,-1.1428 0.084716,-0.33113 0.097266,-0.61746 -0.014421,-0.85359 -0.1116794,-0.23625 -0.3780537,-0.37173 -0.6572371,-0.35583 -0.2142574,0.0125 -0.4487931,0.0895 -0.7129681,0.22697 v -1.23025 h 1.1245434 0.2213198 v -0.44293 H 6.2735887 5.1490465 v -0.8584 -0.2217 z"
           style="color:#000000;font-style:normal;font-variant:normal;font-weight:normal;font-stretch:normal;font-size:medium;line-height:1.25;font-family:'Futura Hv BT';-inkscape-font-specification:'Futura Hv BT';font-variant-ligatures:normal;font-variant-position:normal;font-variant-caps:normal;font-variant-numeric:normal;font-variant-alternates:normal;font-feature-settings:normal;text-indent:0;text-align:start;text-decoration:none;text-decoration-line:none;text-decoration-style:solid;text-decoration-color:#000000;letter-spacing:0px;word-spacing:0px;text-transform:none;writing-mode:lr-tb;direction:ltr;text-orientation:mixed;dominant-baseline:auto;baseline-shift:baseline;text-anchor:start;white-space:normal;shape-padding:0;clip-rule:nonzero;display:inline;overflow:visible;visibility:visible;opacity:1;isolation:auto;mix-blend-mode:normal;color-interpolation:sRGB;color-interpolation-filters:linearRGB;solid-color:#000000;solid-opacity:1;vector-effect:none;fill:#da230f;fill-opacity:0.94117647;fill-rule:nonzero;stroke:none;stroke-width:0.44277051;stroke-linecap:square;stroke-linejoin:miter;stroke-miterlimit:4;stroke-dasharray:none;stroke-dashoffset:0;stroke-opacity:1;color-rendering:auto;image-rendering:auto;shape-rendering:auto;text-rendering:auto;enable-background:accumulate" />
        <path
           style="font-style:normal;font-variant:normal;font-weight:normal;font-stretch:normal;font-size:medium;line-height:1.25;font-family:'Futura Hv BT';-inkscape-font-specification:'Futura Hv BT';letter-spacing:0px;word-spacing:0px;fill:#333333;fill-opacity:1;stroke:none;stroke-width:1.31385636;stroke-linecap:square;stroke-miterlimit:4;stroke-dasharray:none;stroke-opacity:1"
           d="m 30.215879,279.81546 a 2.7459155,2.7459155 0 0 0 -2.746274,2.74628 2.7459155,2.7459155 0 0 0 2.746274,2.74627 2.7459155,2.7459155 0 0 0 2.746273,-2.74627 2.7459155,2.7459155 0 0 0 -2.746273,-2.74628 z m -1.915523,1.43729 h 1.486539 c 0.210234,0 0.369288,0.0186 0.475641,0.0557 0.173135,0.0619 0.259205,0.17799 0.259205,0.34863 v 0.79317 c 0,0.13359 -0.09326,0.23958 -0.281237,0.31623 -0.143455,0.0568 -0.295316,0.0842 -0.453609,0.0842 h -0.500264 v 1.02126 h -0.986275 z m 2.536318,0 h 0.559882 c 0.168187,0 0.320166,0.0274 0.4562,0.0842 0.185501,0.0717 0.278646,0.17913 0.278646,0.32011 v 2.21491 h -0.986274 v -2.03735 h -0.308454 z m -1.550043,0.58192 v 0.43805 h 0.248836 v -0.43805 z"
           id="path944"
           inkscape:connector-curvature="0" />
        <g
           transform="matrix(0.73771339,0,0,0.73771339,10.165727,68.034914)"
           aria-label="production one"
           style="font-style:normal;font-variant:normal;font-weight:normal;font-stretch:normal;font-size:1.49278176px;line-height:1.25;font-family:sans-serif;-inkscape-font-specification:'Futura Hv BT';letter-spacing:0px;word-spacing:0px;fill:#da230f;fill-opacity:0.94117647;stroke:none;stroke-width:0.10366666"
           id="text835">
          <path
             inkscape:connector-curvature="0"
             d="m 16.866321,293.76441 q 0,0.13436 -0.09554,0.22989 -0.09405,0.094 -0.228396,0.094 h -0.201526 q -0.05971,0 -0.119422,-0.0358 -0.05971,-0.0358 -0.0821,-0.0881 v 0.39409 h -0.243323 v -1.10615 h 0.243323 v 0.12689 q 0.01941,-0.0493 0.08061,-0.0881 0.0612,-0.0388 0.120915,-0.0388 h 0.201526 q 0.13435,0 0.228396,0.0955 0.09554,0.0955 0.09554,0.22839 z m -0.241831,0 v -0.18809 q 0,-0.0328 -0.02388,-0.0567 -0.02388,-0.0239 -0.05822,-0.0239 h -0.322441 q -0.03433,0 -0.05822,0.0239 -0.02239,0.0239 -0.02239,0.0567 v 0.18809 q 0,0.0343 0.02239,0.0582 0.02388,0.0239 0.05822,0.0239 h 0.322441 q 0.03433,0 0.05822,-0.0239 0.02388,-0.0239 0.02388,-0.0582 z"
             style="font-style:normal;font-variant:normal;font-weight:normal;font-stretch:normal;font-family:'Sui Generis';-inkscape-font-specification:'Sui Generis';fill:#da230f;fill-opacity:0.94117647;stroke-width:0.10366666"
             id="path868" />
          <path
             inkscape:connector-curvature="0"
             d="m 17.555636,293.25239 -0.02687,0.24034 q -0.09106,-0.0537 -0.153757,-0.0403 -0.114944,0.0269 -0.114944,0.23586 v 0.40156 h -0.243323 v -0.83745 h 0.240338 v 0.1239 q 0.03881,-0.097 0.117929,-0.1239 0.04628,-0.0164 0.108973,-0.0104 0.03135,10e-4 0.07165,0.0104 z"
             style="font-style:normal;font-variant:normal;font-weight:normal;font-stretch:normal;font-family:'Sui Generis';-inkscape-font-specification:'Sui Generis';fill:#da230f;fill-opacity:0.94117647;stroke-width:0.10366666"
             id="path870" />
          <path
             inkscape:connector-curvature="0"
             d="m 18.606718,293.76441 q 0,0.13436 -0.09554,0.22989 -0.09405,0.094 -0.228396,0.094 h -0.322441 q -0.13435,0 -0.229888,-0.094 -0.09405,-0.0955 -0.09405,-0.22989 v -0.18809 q 0,-0.13435 0.09405,-0.22839 0.09554,-0.0955 0.229888,-0.0955 h 0.322441 q 0.13435,0 0.228396,0.0955 0.09554,0.094 0.09554,0.22839 z m -0.243324,0 v -0.18809 q 0,-0.0328 -0.02388,-0.0567 -0.02239,-0.0239 -0.05673,-0.0239 h -0.322441 q -0.03433,0 -0.05822,0.0239 -0.02239,0.0239 -0.02239,0.0567 v 0.18809 q 0,0.0343 0.02239,0.0582 0.02388,0.0239 0.05822,0.0239 h 0.322441 q 0.03433,0 0.05673,-0.0239 0.02388,-0.0239 0.02388,-0.0582 z"
             style="font-style:normal;font-variant:normal;font-weight:normal;font-stretch:normal;font-family:'Sui Generis';-inkscape-font-specification:'Sui Generis';fill:#da230f;fill-opacity:0.94117647;stroke-width:0.10366666"
             id="path872-9" />
          <path
             inkscape:connector-curvature="0"
             d="m 19.656633,294.08835 q -0.06867,-0.0179 -0.119423,-0.0702 -0.09554,0.0702 -0.231381,0.0702 h -0.24183 q -0.134351,0 -0.229889,-0.094 -0.09404,-0.0955 -0.09404,-0.22989 v -0.18809 q 0,-0.13435 0.09404,-0.22839 0.09554,-0.0955 0.229889,-0.0955 h 0.147785 q 0.138829,0 0.203018,0.1239 v -0.40604 l 0.241831,-0.0806 z m -0.241831,-0.29408 v -0.18809 q 0,-0.0403 -0.03433,-0.0746 -0.03284,-0.0358 -0.07762,-0.0358 h -0.238845 q -0.03284,0 -0.05673,0.0239 -0.02388,0.0239 -0.02388,0.0567 v 0.18809 q 0,0.0343 0.02239,0.0582 0.02388,0.0239 0.05822,0.0239 h 0.298556 q 0.05225,0 0.05225,-0.0523 z"
             style="font-style:normal;font-variant:normal;font-weight:normal;font-stretch:normal;font-family:'Sui Generis';-inkscape-font-specification:'Sui Generis';fill:#da230f;fill-opacity:0.94117647;stroke-width:0.10366666"
             id="path874-1" />
          <path
             inkscape:connector-curvature="0"
             d="m 20.725022,294.08835 q -0.06419,-0.0209 -0.111959,-0.0746 -0.04628,0.0373 -0.07315,0.0507 -0.05374,0.0239 -0.138829,0.0239 h -0.268701 q -0.13435,0 -0.229888,-0.094 -0.09404,-0.0955 -0.09404,-0.22989 v -0.51202 h 0.243323 v 0.51202 q 0,0.0343 0.02239,0.0582 0.02388,0.0239 0.05822,0.0239 h 0.301542 q 0.04777,0 0.04777,-0.0642 v -0.52994 h 0.243324 z"
             style="font-style:normal;font-variant:normal;font-weight:normal;font-stretch:normal;font-family:'Sui Generis';-inkscape-font-specification:'Sui Generis';fill:#da230f;fill-opacity:0.94117647;stroke-width:0.10366666"
             id="path876-2" />
          <path
             inkscape:connector-curvature="0"
             d="m 21.784803,293.94355 q -0.04478,0.0657 -0.119422,0.10599 -0.07315,0.0388 -0.152264,0.0388 h -0.331398 q -0.13435,0 -0.229888,-0.094 -0.09404,-0.0955 -0.09404,-0.22989 v -0.18809 q 0,-0.13435 0.09404,-0.22839 0.09554,-0.0955 0.229888,-0.0955 h 0.323934 q 0.167192,0 0.264222,0.13734 l -0.19854,0.14032 q -0.02388,-0.0343 -0.06568,-0.0343 h -0.323934 q -0.03284,0 -0.05673,0.0239 -0.02388,0.0239 -0.02388,0.0567 v 0.18809 q 0,0.0343 0.02388,0.0582 0.02388,0.0239 0.05673,0.0239 h 0.323934 q 0.06419,0 0.100016,-0.0672 z"
             style="font-style:normal;font-variant:normal;font-weight:normal;font-stretch:normal;font-family:'Sui Generis';-inkscape-font-specification:'Sui Generis';fill:#da230f;fill-opacity:0.94117647;stroke-width:0.10366666"
             id="path878-7" />
          <path
             inkscape:connector-curvature="0"
             d="m 22.359268,293.84204 -0.02986,0.24034 q -0.05673,0.0269 -0.110466,0.0269 -0.168684,0 -0.247802,-0.15973 -0.0612,-0.1239 -0.0612,-0.32991 v -0.1239 h -0.108973 l 0.02687,-0.24332 h 0.0821 v -0.20152 l 0.241831,-0.0806 v 0.28214 h 0.143307 l -0.02687,0.24332 h -0.116437 v 0.1239 q 0,0.12988 0.0209,0.18212 0.0209,0.0522 0.08807,0.0642 0.0612,0.009 0.09852,-0.0239 z"
             style="font-style:normal;font-variant:normal;font-weight:normal;font-stretch:normal;font-family:'Sui Generis';-inkscape-font-specification:'Sui Generis';fill:#da230f;fill-opacity:0.94117647;stroke-width:0.10366666"
             id="path880-0" />
          <path
             inkscape:connector-curvature="0"
             d="m 22.70347,293.08221 h -0.24183 v -0.15226 h 0.24183 z m 0,1.00614 h -0.24183 v -0.83596 h 0.24183 z"
             style="font-style:normal;font-variant:normal;font-weight:normal;font-stretch:normal;font-family:'Sui Generis';-inkscape-font-specification:'Sui Generis';fill:#da230f;fill-opacity:0.94117647;stroke-width:0.10366666"
             id="path882-9" />
          <path
             inkscape:connector-curvature="0"
             d="m 23.819792,293.76441 q 0,0.13436 -0.09554,0.22989 -0.09405,0.094 -0.228396,0.094 h -0.322441 q -0.13435,0 -0.229888,-0.094 -0.09405,-0.0955 -0.09405,-0.22989 v -0.18809 q 0,-0.13435 0.09405,-0.22839 0.09554,-0.0955 0.229888,-0.0955 h 0.322441 q 0.13435,0 0.228396,0.0955 0.09554,0.094 0.09554,0.22839 z m -0.243324,0 v -0.18809 q 0,-0.0328 -0.02388,-0.0567 -0.02239,-0.0239 -0.05673,-0.0239 h -0.322441 q -0.03433,0 -0.05822,0.0239 -0.02239,0.0239 -0.02239,0.0567 v 0.18809 q 0,0.0343 0.02239,0.0582 0.02388,0.0239 0.05822,0.0239 h 0.322441 q 0.03433,0 0.05673,-0.0239 0.02388,-0.0239 0.02388,-0.0582 z"
             style="font-style:normal;font-variant:normal;font-weight:normal;font-stretch:normal;font-family:'Sui Generis';-inkscape-font-specification:'Sui Generis';fill:#da230f;fill-opacity:0.94117647;stroke-width:0.10366666"
             id="path884-3" />
          <path
             inkscape:connector-curvature="0"
             d="m 24.893591,294.08835 h -0.243323 v -0.51203 q 0,-0.0328 -0.02388,-0.0567 -0.02388,-0.0239 -0.05673,-0.0239 h -0.265716 q -0.111958,0 -0.111958,0.11047 v 0.48217 h -0.241831 v -0.83596 h 0.241831 v 0.13435 q 0.02538,-0.0567 0.0821,-0.0955 0.05822,-0.0388 0.120915,-0.0388 h 0.174656 q 0.13435,0 0.228395,0.0955 0.09554,0.094 0.09554,0.22839 z"
             style="font-style:normal;font-variant:normal;font-weight:normal;font-stretch:normal;font-family:'Sui Generis';-inkscape-font-specification:'Sui Generis';fill:#da230f;fill-opacity:0.94117647;stroke-width:0.10366666"
             id="path886-6" />
          <path
             inkscape:connector-curvature="0"
             d="m 26.513796,293.76441 q 0,0.13436 -0.09554,0.22989 -0.09405,0.094 -0.228396,0.094 h -0.32244 q -0.134351,0 -0.229889,-0.094 -0.09405,-0.0955 -0.09405,-0.22989 v -0.18809 q 0,-0.13435 0.09405,-0.22839 0.09554,-0.0955 0.229889,-0.0955 h 0.32244 q 0.134351,0 0.228396,0.0955 0.09554,0.094 0.09554,0.22839 z m -0.243323,0 v -0.18809 q 0,-0.0328 -0.02388,-0.0567 -0.02239,-0.0239 -0.05673,-0.0239 h -0.32244 q -0.03433,0 -0.05822,0.0239 -0.02239,0.0239 -0.02239,0.0567 v 0.18809 q 0,0.0343 0.02239,0.0582 0.02388,0.0239 0.05822,0.0239 h 0.32244 q 0.03433,0 0.05673,-0.0239 0.02388,-0.0239 0.02388,-0.0582 z"
             style="font-style:normal;font-variant:normal;font-weight:normal;font-stretch:normal;font-family:'Sui Generis';-inkscape-font-specification:'Sui Generis';fill:#da230f;fill-opacity:0.94117647;stroke-width:0.10366666"
             id="path888-0" />
          <path
             inkscape:connector-curvature="0"
             d="m 27.587596,294.08835 h -0.243323 v -0.51203 q 0,-0.0328 -0.02388,-0.0567 -0.02388,-0.0239 -0.05673,-0.0239 h -0.265716 q -0.111958,0 -0.111958,0.11047 v 0.48217 h -0.241831 v -0.83596 h 0.241831 v 0.13435 q 0.02538,-0.0567 0.0821,-0.0955 0.05822,-0.0388 0.120915,-0.0388 h 0.174656 q 0.13435,0 0.228395,0.0955 0.09554,0.094 0.09554,0.22839 z"
             style="font-style:normal;font-variant:normal;font-weight:normal;font-stretch:normal;font-family:'Sui Generis';-inkscape-font-specification:'Sui Generis';fill:#da230f;fill-opacity:0.94117647;stroke-width:0.10366666"
             id="path890-6" />
          <path
             inkscape:connector-curvature="0"
             d="m 28.691321,293.73904 h -0.728477 v 0.0254 q 0,0.0343 0.02388,0.0612 0.02388,0.0254 0.05673,0.0254 h 0.623983 l -0.02986,0.23735 H 28.04345 q -0.134351,0 -0.228396,-0.094 -0.09405,-0.0955 -0.09405,-0.22989 v -0.18809 q 0,-0.13435 0.09405,-0.22839 0.09554,-0.0955 0.228396,-0.0955 h 0.323933 q 0.134351,0 0.228396,0.0955 0.09554,0.094 0.09554,0.22839 z m -0.243323,-0.13585 v -0.0403 q 0,-0.0328 -0.02388,-0.0567 -0.02388,-0.0254 -0.05673,-0.0254 h -0.323933 q -0.03284,0 -0.05673,0.0254 -0.02388,0.0239 -0.02388,0.0567 v 0.0403 z"
             style="font-style:normal;font-variant:normal;font-weight:normal;font-stretch:normal;font-family:'Sui Generis';-inkscape-font-specification:'Sui Generis';fill:#da230f;fill-opacity:0.94117647;stroke-width:0.10366666"
             id="path892-2" />
        </g>
      </g>
    </g>
  </g>
</svg>
